<svg width="254" height="61" fill="none" xmlns="http://www.w3.org/2000/svg">
<path d="M65.0716 19.1777C63.0344 14.9042 59.1723 12.1437 53.3527 12.1437C51.5664 12.1748 49.8111 12.6159 48.2222 13.4327C46.6333 14.2496 45.2533 15.4205 44.1885 16.8551L43.9762 17.1139V0.364975C43.9762 0.268178 43.9377 0.175351 43.8693 0.106906C43.8008 0.0384598 43.708 0 43.6112 0H35.3827C35.2871 0.00173924 35.1959 0.040956 35.1289 0.109214C35.0619 0.177472 35.0244 0.269317 35.0244 0.364975V48.4088C35.0244 48.5038 35.0621 48.5949 35.1293 48.6621C35.1965 48.7293 35.2877 48.7671 35.3827 48.7671H44.1952C44.2908 48.7671 44.3827 48.7296 44.4509 48.6625C44.5192 48.5955 44.5584 48.5044 44.5601 48.4088V27.9238C44.5601 23.9423 47.2145 21.122 51.4615 21.122C56.1066 21.122 57.2811 24.9443 57.2811 28.8395V48.4088C57.2811 48.5038 57.3189 48.5949 57.3861 48.6621C57.4533 48.7293 57.5444 48.7671 57.6395 48.7671H66.432C66.5277 48.7671 66.6195 48.7296 66.6878 48.6625C66.756 48.5955 66.7952 48.5044 66.797 48.4088V27.6716C66.797 26.9616 66.797 26.2648 66.7041 25.588C66.5531 23.3699 65.9999 21.1978 65.0716 19.1777V19.1777Z" fill="#5A31F4"/>
<path d="M21.0692 26.298C21.0692 26.298 16.5833 25.2429 14.931 24.8182C13.2786 24.3935 10.392 23.4911 10.392 21.3079C10.392 19.1247 12.7212 18.4279 15.0836 18.4279C17.446 18.4279 20.0738 18.9986 20.2795 21.6197C20.2878 21.7142 20.3313 21.8021 20.4013 21.866C20.4714 21.9299 20.5629 21.9652 20.6577 21.9648L29.3441 21.9316C29.3952 21.9318 29.4458 21.9213 29.4927 21.901C29.5396 21.8807 29.5818 21.8509 29.6167 21.8136C29.6516 21.7762 29.6784 21.732 29.6954 21.6838C29.7124 21.6357 29.7194 21.5845 29.7157 21.5335C29.1782 13.1457 21.819 10.1463 15.0305 10.1463C6.98117 10.1463 1.09515 15.455 1.09515 21.3079C1.09515 25.5814 2.30288 29.5894 11.7988 32.3765C13.4644 32.8609 15.7273 33.4913 17.7048 34.0421C20.0804 34.7057 21.3611 35.7077 21.3611 37.2871C21.3611 39.1186 18.7068 40.3926 16.0989 40.3926C12.3231 40.3926 9.64216 38.9925 9.42318 36.4775C9.41179 36.3854 9.36697 36.3007 9.29723 36.2396C9.22749 36.1784 9.13769 36.145 9.04493 36.1457L0.378473 36.1855C0.327664 36.1855 0.277377 36.1957 0.230599 36.2155C0.183822 36.2353 0.14152 36.2644 0.106217 36.3009C0.0709147 36.3375 0.0433304 36.3808 0.0251216 36.4282C0.0069128 36.4756 -0.00154978 36.5262 0.000232991 36.577C0.398386 44.4936 8.04292 48.7605 15.1699 48.7605C25.7873 48.7605 30.585 42.7882 30.585 37.1942C30.5983 34.5664 29.9944 28.5808 21.0692 26.298Z" fill="#5A31F4"/>
<path d="M132.817 12.1304C128.404 12.1304 124.708 14.5724 122.326 17.5187V12.4755C122.326 12.3816 122.289 12.2914 122.223 12.2244C122.158 12.1574 122.068 12.1189 121.974 12.1171H113.733C113.638 12.1171 113.546 12.1549 113.479 12.2221C113.412 12.2893 113.374 12.3804 113.374 12.4755V59.5902C113.376 59.6841 113.414 59.7735 113.481 59.8393C113.549 59.9051 113.639 59.9419 113.733 59.9419H122.552C122.645 59.9419 122.734 59.9048 122.8 59.8389C122.866 59.7729 122.903 59.6835 122.903 59.5902V44.102H123.036C124.436 46.2388 128.265 48.8003 133.269 48.8003C142.678 48.8003 150.522 40.9965 150.522 30.4521C150.529 20.3323 142.725 12.1304 132.817 12.1304ZM132.001 39.8219C130.144 39.8681 128.314 39.3597 126.747 38.3616C125.18 37.3636 123.945 35.9212 123.201 34.2184C122.457 32.5157 122.237 30.6299 122.57 28.8018C122.902 26.9736 123.772 25.2859 125.068 23.9542C126.364 22.6225 128.027 21.7071 129.846 21.3249C131.664 20.9426 133.555 21.1109 135.277 21.8081C137 22.5054 138.475 23.7001 139.516 25.2396C140.556 26.7792 141.114 28.5939 141.119 30.4521C141.138 31.6667 140.917 32.8732 140.469 34.0023C140.021 35.1313 139.354 36.1607 138.507 37.0313C137.66 37.902 136.649 38.5967 135.532 39.0756C134.416 39.5544 133.216 39.8081 132.001 39.8219Z" fill="#5A31F4"/>
<path d="M87.2753 10.06C79.0534 10.06 74.9525 12.8537 71.6611 15.09L71.5615 15.1564C71.3919 15.2726 71.2723 15.4486 71.2268 15.6491C71.1813 15.8496 71.2132 16.06 71.316 16.238L74.5676 21.8387C74.6286 21.9435 74.7119 22.0335 74.8117 22.1024C74.9115 22.1712 75.0253 22.2171 75.1449 22.2369C75.2619 22.258 75.3821 22.2529 75.4969 22.2219C75.6116 22.1909 75.7181 22.1348 75.8085 22.0577L76.0673 21.8453C77.7595 20.4253 80.4735 18.5274 87.043 18.0098C90.6994 17.7178 93.8581 18.6734 96.1873 20.85C98.7487 23.2123 100.282 27.028 100.282 31.056C100.282 38.4682 95.9152 43.1266 88.9011 43.2195C83.1212 43.1863 79.2393 40.1737 79.2393 35.721C79.2393 33.3586 80.3076 31.8191 82.3913 30.2796C82.5504 30.1658 82.6629 29.9982 82.708 29.8079C82.7531 29.6177 82.7278 29.4175 82.6368 29.2444L79.717 23.7233C79.6631 23.6245 79.5902 23.5373 79.5025 23.4667C79.4148 23.3961 79.3141 23.3435 79.2061 23.3119C79.0956 23.279 78.9794 23.2696 78.8651 23.2845C78.7508 23.2994 78.6409 23.3381 78.5425 23.3981C75.2644 25.3425 71.243 28.8993 71.462 35.7342C71.7274 44.4339 78.9606 51.0764 88.3636 51.3485H88.8347H89.4784C100.653 50.9835 108.722 42.6886 108.722 31.4408C108.722 21.1154 101.197 10.06 87.2753 10.06Z" fill="#5A31F4"/>
<path d="M185.274 15.3688H179.673C179.542 15.3705 179.416 15.4235 179.323 15.5164C179.23 15.6094 179.177 15.735 179.176 15.8665V27.6186C179.177 27.7495 179.231 27.8743 179.324 27.9662C179.417 28.0581 179.542 28.1097 179.673 28.1097H185.274C188.685 28.1097 191.2 25.4221 191.2 21.7392C191.2 18.0563 188.685 15.3688 185.274 15.3688Z" fill="#5A31F4"/>
<path d="M202.481 36.159C202.481 37.8644 203.921 38.8133 206.429 38.8133C209.84 38.8133 211.857 36.9686 211.857 33.6971V32.7548L206.748 33.0202C204.054 33.1529 202.481 34.2744 202.481 36.159Z" fill="#5A31F4"/>
<path d="M243.955 0.106189H168.704C167.47 0.106189 166.247 0.349457 165.107 0.822086C163.966 1.29471 162.93 1.98744 162.058 2.86068C161.185 3.73392 160.493 4.77056 160.021 5.91135C159.549 7.05214 159.307 8.27472 159.308 9.50923V50.7048C159.308 53.1975 160.298 55.5882 162.06 57.3514C163.821 59.1146 166.211 60.1061 168.704 60.1078H243.955C245.191 60.1113 246.415 59.8711 247.559 59.4009C248.702 58.9308 249.741 58.2399 250.616 57.3678C251.492 56.4957 252.188 55.4595 252.663 54.3185C253.138 53.1775 253.383 51.954 253.385 50.718V9.5225C253.387 8.28408 253.145 7.05735 252.672 5.91286C252.199 4.76836 251.504 3.72868 250.628 2.85359C249.751 1.97851 248.711 1.28529 247.566 0.813793C246.421 0.342293 245.193 0.101813 243.955 0.106189ZM185.559 32.7348H179.64C179.508 32.7348 179.382 32.7872 179.288 32.8806C179.195 32.9739 179.142 33.1005 179.142 33.2325V41.6601C179.142 41.7921 179.09 41.9187 178.997 42.012C178.903 42.1053 178.777 42.1578 178.645 42.1578H174.477C174.346 42.156 174.22 42.103 174.127 42.0101C174.034 41.9171 173.981 41.7915 173.98 41.6601V11.2611C173.98 11.1291 174.032 11.0025 174.125 10.9092C174.219 10.8158 174.345 10.7634 174.477 10.7634H185.559C191.837 10.7634 196.329 15.3355 196.329 21.7524C196.329 28.1693 191.87 32.7481 185.592 32.7481L185.559 32.7348ZM216.748 41.6534C216.749 41.7193 216.737 41.7848 216.712 41.8459C216.687 41.9071 216.651 41.9627 216.605 42.0097C216.558 42.0566 216.503 42.0938 216.442 42.1193C216.381 42.1447 216.316 42.1578 216.25 42.1578H212.315C212.249 42.1578 212.184 42.1447 212.123 42.1193C212.062 42.0938 212.007 42.0566 211.961 42.0097C211.915 41.9627 211.878 41.9071 211.853 41.8459C211.829 41.7848 211.817 41.7193 211.817 41.6534V40.7443C211.824 40.6645 211.805 40.5848 211.762 40.5169C211.72 40.449 211.657 40.3967 211.582 40.3676C211.508 40.3385 211.426 40.3343 211.348 40.3555C211.271 40.3768 211.203 40.4224 211.154 40.4855C209.979 41.7662 208.068 42.6953 205.022 42.6953C200.536 42.6953 197.57 40.3594 197.57 36.3248C197.527 35.341 197.73 34.362 198.161 33.4767C198.592 32.5913 199.238 31.8277 200.039 31.255C201.658 30.0406 204.166 29.4102 207.889 29.2642L211.837 29.1315V27.9769C211.837 25.6477 210.271 24.6589 207.756 24.6589C205.241 24.6589 203.655 25.5481 203.284 27.0014C203.254 27.1041 203.191 27.1938 203.104 27.2564C203.018 27.3189 202.913 27.3507 202.806 27.3465H198.911C198.839 27.3482 198.768 27.3343 198.702 27.3056C198.636 27.2769 198.578 27.2342 198.53 27.1805C198.483 27.1267 198.448 27.0632 198.428 26.9945C198.407 26.9257 198.402 26.8533 198.413 26.7824C198.997 23.3318 201.85 20.7106 207.935 20.7106C214.399 20.7106 216.728 23.7167 216.728 29.4567L216.748 41.6534ZM241.261 21.9316L232.502 45.2965C230.511 50.7247 227.027 52.1182 223.211 52.1182C222.492 52.1357 221.775 52.0485 221.081 51.8594C220.973 51.8303 220.877 51.7665 220.809 51.6778C220.741 51.5891 220.703 51.4803 220.703 51.3684V47.8182C220.703 47.7439 220.719 47.6705 220.75 47.6032C220.781 47.5358 220.827 47.4763 220.884 47.4287C220.941 47.3812 221.008 47.3468 221.08 47.3281C221.152 47.3094 221.227 47.3068 221.3 47.3205C221.902 47.4346 222.513 47.4924 223.125 47.493C224.18 47.546 225.223 47.2431 226.085 46.6331C226.948 46.0231 227.581 45.1412 227.883 44.1286L228.142 43.3124C228.182 43.2031 228.182 43.0832 228.142 42.974L219.953 21.9382C219.928 21.863 219.921 21.783 219.933 21.7046C219.944 21.6261 219.974 21.5516 220.02 21.487C220.066 21.4223 220.127 21.3694 220.197 21.3325C220.267 21.2956 220.345 21.2758 220.424 21.2746H224.406C224.508 21.2756 224.607 21.3071 224.691 21.3651C224.775 21.423 224.84 21.5048 224.877 21.5998L230.438 36.4376C230.475 36.5346 230.54 36.6181 230.625 36.677C230.711 36.7359 230.812 36.7675 230.916 36.7675C231.019 36.7675 231.12 36.7359 231.206 36.677C231.291 36.6181 231.357 36.5346 231.393 36.4376L236.218 21.6396C236.25 21.5387 236.314 21.4508 236.4 21.3888C236.486 21.3267 236.589 21.2937 236.695 21.2945H240.776C240.855 21.2943 240.933 21.3125 241.004 21.3478C241.074 21.3831 241.135 21.4344 241.183 21.4976C241.23 21.5608 241.261 21.6342 241.275 21.7119C241.289 21.7896 241.284 21.8694 241.261 21.9449V21.9316Z" fill="#5A31F4"/>
</svg>
